<?xml version="1.0" encoding="UTF-8"?>
<svg width="16px" height="16px" viewBox="0 0 16 16" version="1.1" xmlns="http://www.w3.org/2000/svg" xmlns:xlink="http://www.w3.org/1999/xlink">
    <title>icon/20/收藏夹</title>
    <g id="站酷4.5.4" stroke="none" stroke-width="1" fill="none" fill-rule="evenodd">
        <g id="发现页_发现下拉菜单优化" transform="translate(-1166.000000, -76.000000)">
            <g id="控件/下拉菜单/一级类目-+-控件/下拉菜单/一级类目-+-控件/下拉菜单/一级类目-+-控件/下拉菜单/一级类目-+-控件/下拉菜单/一级类目-+-控件/下拉菜单/一级类目-+-控件/下拉菜单/一级类目-+-控件/下拉菜单/一级类目-+-控件/下拉菜单/一级类目-+-控件/下拉菜单/一级类目-+-控件/下拉菜单/一级类目-+-控件/下拉菜单/一级类目-+-控件/下拉菜单/一级类目-+-控件/下拉菜单/一级类目-+-控件/下拉菜单/一级类目-蒙版" transform="translate(472.000000, 56.000000)">
                <g id="编组-6" transform="translate(484.000000, 15.000000)">
                    <g id="编组-10备份" transform="translate(200.000000, 3.000000)">
                        <g id="编组" transform="translate(8.000000, 0.000000)">
                            <rect id="矩形" x="0" y="0" width="20" height="20"></rect>
                            <g transform="translate(3.000000, 3.000000)"></g>
                            <path d="M8.7002,2 C9.4902,2 10.2072,2.466 10.5282,3.187 L10.5282,3.187 L11.334,5 L16,5 C17.0538182,5 17.9181157,5.81639669 17.9945109,6.85080841 L18,7 L18,16 C18,17.104 17.104,18 16,18 L16,18 L4,18 C2.896,18 2,17.104 2,16 L2,16 L2.0002,4 C2.0002,2.896 2.8952,2 4.0002,2 L4.0002,2 Z M16,6.5 L3.5,6.5 L3.5,16 C3.5,16.275 3.725,16.5 4,16.5 L4,16.5 L16,16.5 C16.275,16.5 16.5,16.275 16.5,16 L16.5,16 L16.5,7 C16.5,6.725 16.275,6.5 16,6.5 L16,6.5 Z M10.249,9.1543 L10.842,10.3553 C10.882,10.4373 10.96,10.4943 11.051,10.5083 L12.376,10.7003 C12.604,10.7333 12.695,11.0133 12.53,11.1743 L11.571,12.1093 C11.506,12.1733 11.476,12.2643 11.491,12.3543 L11.718,13.6753 C11.757,13.9013 11.519,14.0743 11.314,13.9673 L10.129,13.3433 C10.048,13.3013 9.952,13.3013 9.871,13.3433 L8.686,13.9673 C8.481,14.0743 8.243,13.9013 8.282,13.6753 L8.509,12.3543 C8.524,12.2643 8.494,12.1733 8.429,12.1093 L7.47,11.1743 C7.305,11.0133 7.395,10.7333 7.624,10.7003 L8.949,10.5083 C9.04,10.4943 9.118,10.4373 9.158,10.3553 L9.751,9.1543 C9.853,8.9483 10.147,8.9483 10.249,9.1543 Z M8.7002,3.5 L4.0002,3.5 C3.7242,3.5 3.5002,3.725 3.5002,4 L3.5002,4 L3.5002,5 L9.6912,5 L9.1572,3.797 C9.0772,3.616 8.8972,3.5 8.7002,3.5 L8.7002,3.5 Z" id="形状结合" fill="#333333"></path>
                        </g>
                    </g>
                </g>
            </g>
        </g>
    </g>
</svg>