<?xml version="1.0" encoding="UTF-8"?>
<svg width="16px" height="16px" viewBox="0 0 16 16" version="1.1" xmlns="http://www.w3.org/2000/svg" xmlns:xlink="http://www.w3.org/1999/xlink">
    <title>icon/20/设计师</title>
    <g id="站酷4.5.4" stroke="none" stroke-width="1" fill="none" fill-rule="evenodd">
        <g id="发现页_发现下拉菜单优化" transform="translate(-1034.000000, -76.000000)">
            <g id="控件/下拉菜单/一级类目-+-控件/下拉菜单/一级类目-+-控件/下拉菜单/一级类目-+-控件/下拉菜单/一级类目-+-控件/下拉菜单/一级类目-+-控件/下拉菜单/一级类目-+-控件/下拉菜单/一级类目-+-控件/下拉菜单/一级类目-+-控件/下拉菜单/一级类目-+-控件/下拉菜单/一级类目-+-控件/下拉菜单/一级类目-+-控件/下拉菜单/一级类目-+-控件/下拉菜单/一级类目-+-控件/下拉菜单/一级类目-+-控件/下拉菜单/一级类目-蒙版" transform="translate(472.000000, 56.000000)">
                <g id="编组-6" transform="translate(484.000000, 15.000000)">
                    <g id="编组-10" transform="translate(68.000000, 3.000000)">
                        <g id="编组" transform="translate(8.000000, 0.000000)">
                            <rect id="矩形" x="0" y="0" width="20" height="20"></rect>
                            <g transform="translate(3.000000, 3.000000)"></g>
                            <path d="M16.9297,12.75 C17.5997,13.66 17.9997,14.78 17.9997,16 C17.9997,17.1 17.0997,18 15.9997,18 L15.9997,18 L11.6797,18 L13.1797,16.5 L15.9997,16.5 C16.2807,16.5 16.4997,16.28 16.4997,16 C16.4997,15.2 16.2597,14.46 15.8497,13.83 L15.8497,13.83 Z M10.0003,2 C12.2103,2 14.0903,3.44 14.7503,5.43 C14.3303,5.59 13.9403,5.84 13.5993,6.18 L13.4403,6.34 C13.1303,4.72 11.7003,3.5 10.0003,3.5 C8.0703,3.5 6.5003,5.07 6.5003,7 C6.5003,8.7 7.7193,10.13 9.3403,10.44 L9.2803,10.5 L9.2807,10.5 L7.7807,12 L7.4997,12 C5.2897,12 3.4997,13.79 3.4997,16 C3.4997,16.28 3.7197,16.5 3.9997,16.5 L3.9997,16.5 L5.3397,16.5 L5.2807,16.82 C5.2007,17.22 5.2197,17.63 5.3497,18 L5.3497,18 L3.9997,18 C2.9007,18 1.9997,17.1 1.9997,16 C1.9997,13.3 3.9507,11.05 6.5197,10.59 L6.5193,10.59 C5.5803,9.68 5.0003,8.41 5.0003,7 C5.0003,4.24 7.2403,2 10.0003,2 Z M11.7577,10.142 L12.1393,9.76 L12.1393,9.76 L12.76,9.1394 L14.66,7.2404 C14.769,7.1294 14.88,7.0494 15,6.9804 C15.26,6.8094 15.54,6.7304 15.81,6.7304 C16.1,6.7304 16.37,6.8304 16.57,7.0304 L16.57,7.0304 L17.7,8.1604 C18.17,8.6294 18.08,9.4804 17.49,10.0704 L17.49,10.0704 L10.58,16.9804 C10.25,17.3094 9.83,17.5404 9.41,17.6204 L9.41,17.6204 L7.62,17.9804 C7.55,17.9904 7.49,18.0004 7.43,18.0004 C6.96,18.0004 6.65,17.6104 6.75,17.1104 L6.75,17.1104 L6.87,16.5004 L7.11,15.3204 C7.19,14.9004 7.42,14.4804 7.75,14.1504 L7.75,14.1504 L11.7577,10.142 Z M15.72,8.2994 L13.1,10.9204 L12.019,12.0004 L8.81,15.2104 C8.69,15.3304 8.6,15.4804 8.58,15.6104 L8.58,15.6104 L8.44,16.2904 L9.12,16.1504 C9.25,16.1294 9.4,16.0404 9.519,15.9204 L9.519,15.9204 L13.35,12.0894 L14.54,10.9004 L16.43,9.0094 L15.72,8.2994 Z" id="形状结合" fill="#333333"></path>
                        </g>
                    </g>
                </g>
            </g>
        </g>
    </g>
</svg>