<?xml version="1.0" encoding="UTF-8"?>
<svg width="18px" height="16px" viewBox="0 0 18 16" version="1.1" xmlns="http://www.w3.org/2000/svg" xmlns:xlink="http://www.w3.org/1999/xlink">
    <title>icon/20/排行榜</title>
    <g id="站酷4.5.4" stroke="none" stroke-width="1" fill="none" fill-rule="evenodd">
        <g id="发现页_发现下拉菜单优化" transform="translate(-1099.000000, -76.000000)">
            <g id="控件/下拉菜单/一级类目-+-控件/下拉菜单/一级类目-+-控件/下拉菜单/一级类目-+-控件/下拉菜单/一级类目-+-控件/下拉菜单/一级类目-+-控件/下拉菜单/一级类目-+-控件/下拉菜单/一级类目-+-控件/下拉菜单/一级类目-+-控件/下拉菜单/一级类目-+-控件/下拉菜单/一级类目-+-控件/下拉菜单/一级类目-+-控件/下拉菜单/一级类目-+-控件/下拉菜单/一级类目-+-控件/下拉菜单/一级类目-+-控件/下拉菜单/一级类目-蒙版" transform="translate(472.000000, 56.000000)">
                <g id="编组-6" transform="translate(484.000000, 15.000000)">
                    <g id="编组-10" transform="translate(140.000000, 0.000000)">
                        <g id="编组" transform="translate(2.000000, 3.000000)">
                            <rect id="矩形" x="0" y="0" width="20" height="20"></rect>
                            <g transform="translate(3.000000, 3.000000)"></g>
                            <path d="M3,18 C1.896,18 1,17.104 1,16 L1,16 L1,8 C1,6.896 1.896,6 3,6 L3,6 L6.5,6 L6.5,4 C6.5,2.94618182 7.31639669,2.0818843 8.35080841,2.00548911 L8.5,2 L11.5,2 C12.604,2 13.5,2.896 13.5,4 L13.5,4 L13.5,9 L17,9 C18.0538182,9 18.9181157,9.81639669 18.9945109,10.8508084 L19,11 L19,16 C19,17.104 18.104,18 17,18 L17,18 Z M12,4 C12,3.725 11.775,3.5 11.5,3.5 L11.5,3.5 L8.5,3.5 C8.225,3.5 8,3.725 8,4 L8,4 L8,16.5 L12,16.5 Z M6.5,7.5 L3,7.5 C2.725,7.5 2.5,7.725 2.5,8 L2.5,8 L2.5,16 C2.5,16.275 2.725,16.5 3,16.5 L3,16.5 L6.5,16.5 L6.5,7.5 Z M17,10.5 L13.5,10.5 L13.5,16.5 L17,16.5 C17.275,16.5 17.5,16.275 17.5,16 L17.5,16 L17.5,11 C17.5,10.725 17.275,10.5 17,10.5 L17,10.5 Z" id="形状结合" fill="#333333"></path>
                        </g>
                    </g>
                </g>
            </g>
        </g>
    </g>
</svg>